{"title":"Powers.US.S02E05.1080p.8bit.HEVC.x265.AAC-2.0/5.1-CHRONOS","uid":15331343,"size":640201243,"categoryP":"video","categoryS":"tv_shows","magnet":"?xt=urn:btih:b0cf4ee1efabce1e7cb11c22c28d00a1a5474728&amp;dn=Powers.US.S02E05.1080p.8bit.HEVC.x265.AAC-2.0%2F5.1-CHRONOS&amp;tr=udp%3A%2F%2Ftracker.leechers-paradise.org%3A6969&amp;tr=udp%3A%2F%2Fzer0day.ch%3A1337&amp;tr=udp%3A%2F%2Fopen.demonii.com%3A1337&amp;tr=udp%3A%2F%2Ftracker.coppersurfer.tk%3A6969&amp;tr=udp%3A%2F%2Fexodus.desync.com%3A6969","seeders":18,"leechers":5,"uploader":"Midnight44","files":1,"time":1468722571,"description":"General\r\nComplete name                            : Powers.US.S02E05.1080p.HDTV.8bit.HEVC.x265.AAC-2.0-CHRONOS.mp4\r\nFormat                                   : MPEG-4\r\nFormat profile                           : Base Media / Version 2\r\nCodec ID                                 : mp42 (isom/iso2/mp41)\r\nFile size                                : 611 MiB\r\nDuration                                 : 46 min\r\nOverall bit rate mode                    : Variable\r\nOverall bit rate                         : 1 853 kb/s\r\nMovie name                               : powers.us.s02e05.1080p.sphd\r\nEncoded date                             : UTC 2016-07-12 09:19:31\r\nTagged date                              : UTC 2016-07-12 09:19:31\r\nWriting application                      : HandBrake 0.10.5 2016021100\r\n\r\nVideo\r\nID                                       : 1\r\nFormat                                   : HEVC\r\nFormat/Info                              : High Efficiency Video Coding\r\nFormat profile                           :   @Main\r\nCodec ID                                 : hev1\r\nCodec ID/Info                            : High Efficiency Video Coding\r\nDuration                                 : 46 min\r\nBit rate                                 : 1 623 kb/s\r\nWidth                                    : 1 920 pixels\r\nHeight                                   : 1 080 pixels\r\nDisplay aspect ratio                     : 16:9\r\nFrame rate mode                          : Constant\r\nFrame rate                               : 25.000 FPS\r\nColor space                              : YUV\r\nChroma subsampling                       : 4:2:0\r\nBit depth                                : 8 bits\r\nBits/(Pixel*Frame)                       : 0.031\r\nStream size                              : 535 MiB (88%)\r\nWriting library                          : x265 1.9:[Windows][GCC 4.9.0][64 bit] 8bit\r\nEncoding settings                        : wpp / ctu=64 / min-cu-size=8 / max-tu-size=32 / tu-intra-depth=1 / tu-inter-depth=1 / me=1 / subme=2 / merange=57 / no-rect / no-amp / max-merge=2 / temporal-mvp / no-early-skip / rdpenalty=0 / no-tskip / no-tskip-fast / strong-intra-smoothing / no-lossless / no-cu-lossless / no-constrained-intra / fast-intra / open-gop / no-temporal-layers / interlace=0 / keyint=250 / min-keyint=25 / scenecut=40 / rc-lookahead=15 / lookahead-slices=6 / bframes=4 / bframe-bias=0 / b-adapt=0 / ref=3 / limit-refs=3 / no-limit-modes / weightp / no-weightb / aq-mode=1 / qg-size=32 / aq-strength=1.00 / cbqpoffs=0 / crqpoffs=0 / rd=2 / psy-rd=2.00 / rdoq-level=0 / psy-rdoq=0.00 / signhide / deblock / sao / no-sao-non-deblock / b-pyramid / cutree / no-intra-refresh / rc=crf / crf=21.0 / qcomp=0.60 / qpmin=0 / qpmax=51 / qpstep=4 / ipratio=1.40 / pbratio=1.30\r\nEncoded date                             : UTC 2016-07-12 09:19:31\r\nTagged date                              : UTC 2016-07-12 09:19:31\r\nColor range                              : Limited\r\nColor primaries                          : BT.709\r\nTransfer characteristics                 : BT.709\r\nMatrix coefficients                      : BT.709\r\n\r\nAudio\r\nID                                       : 2\r\nFormat                                   : AAC\r\nFormat/Info                              : Advanced Audio Codec\r\nFormat profile                           : LC\r\nCodec ID                                 : 40\r\nDuration                                 : 46 min\r\nBit rate mode                            : Variable\r\nBit rate                                 : 224 kb/s\r\nChannel(s)                               : 2 channels\r\nChannel positions                        : Front: L R\r\nSampling rate                            : 48.0 kHz\r\nFrame rate                               : 46.875 FPS (1024 spf)\r\nCompression mode                         : Lossy\r\nStream size                              : 73.8 MiB (12%)\r\nTitle                                    : Stereo / Stereo\r\nLanguage                                 : English\r\nDefault                                  : Yes\r\nAlternate group                          : 1\r\nEncoded date                             : UTC 2016-07-12 09:19:31\r\nTagged date                              : UTC 2016-07-12 09:19:31","torrent":{"xt":"urn:btih:b0cf4ee1efabce1e7cb11c22c28d00a1a5474728","amp;dn":"Powers.US.S02E05.1080p.8bit.HEVC.x265.AAC-2.0%2F5.1-CHRONOS","amp;tr":["udp%3A%2F%2Ftracker.leechers-paradise.org%3A6969","udp%3A%2F%2Fzer0day.ch%3A1337","udp%3A%2F%2Fopen.demonii.com%3A1337","udp%3A%2F%2Ftracker.coppersurfer.tk%3A6969","udp%3A%2F%2Fexodus.desync.com%3A6969"],"infoHash":"b0cf4ee1efabce1e7cb11c22c28d00a1a5474728","infoHashBuffer":{"type":"Buffer","data":[176,207,78,225,239,171,206,30,124,177,28,34,194,141,0,161,165,71,71,40]},"announce":[],"urlList":[]}}